<svg id="Layer_1" data-name="Layer 1" xmlns="http://www.w3.org/2000/svg" viewBox="0 0 1035.03 441.38"><defs><style>.cls-1{fill:#381e1d;}.cls-2{fill:#fda57d;}.cls-3{opacity:0.1;}.cls-3,.cls-9{isolation:isolate;}.cls-4{fill:#007bff;}.cls-5{fill:#333;}.cls-6{fill:#e0e0e0;}.cls-7{fill:#2f2e41;}.cls-8{fill:#9f616a;}.cls-9{opacity:0.2;}.cls-10{fill:#575a88;}.cls-11{fill:#f2f2f2;}.cls-12{fill:#ffb8b8;}.cls-13{fill:#8985a8;}.cls-14{fill:#f55f44;}.cls-15,.cls-20,.cls-22,.cls-23{fill:#2e3a3a;}.cls-15{stroke:#727272;}.cls-15,.cls-19,.cls-20,.cls-23{stroke-miterlimit:10;stroke-width:0.5px;}.cls-16{fill:none;}.cls-17{fill:#41c3c9;}.cls-18,.cls-19{fill:#aceaea;}.cls-19{stroke:#aceaea;}.cls-20{stroke:#d880ed;}.cls-21{fill:#d880ed;}.cls-23{stroke:#2e3a3a;}</style></defs><path class="cls-1" d="M630.83,516.76H623.6v169h7.23Z" transform="translate(-74 -252)"/><path class="cls-1" d="M623.6,516.76s12.3-15.45,22.42,4.59c0,0-4.82,8.93-6.27,4.58s-4.91-10.84-9-7" transform="translate(-74 -252)"/><path class="cls-2" d="M622.51,487.25s18.2,17.93,9.24,33.08a3.65,3.65,0,0,1-1.12,1.16,3.55,3.55,0,0,1-1.51.56,3.47,3.47,0,0,1-1.6-.16,3.37,3.37,0,0,1-1.37-.85c-3.09-3.06-8-10.65-14-29.44Z" transform="translate(-74 -252)"/><path class="cls-3" d="M609.73,392.81s18.81,5.79,15.19,28.48-2.17,38.63-2.17,38.63l4.83,29-8.68,11.83s-14.95-15-20-30.17S594.3,395.22,609.73,392.81Z" transform="translate(-74 -252)"/><path class="cls-4" d="M609.49,392.57s18.81,5.79,15.19,28.48-2.17,38.62-2.17,38.62l4.83,29-8.69,11.83s-14.95-15-20-30.17S594.06,395,609.49,392.57Z" transform="translate(-74 -252)"/><path d="M587.44,651l-3.09,23.12s7.92,3.24,10.29,2.51,6.53,2.25,6.53,2.25,17.69,5.59,21.16.57-4.41-6.57-10.8-10.36-9.09-18.41-9.09-18.41Z" transform="translate(-74 -252)"/><path class="cls-5" d="M621.19,487.8v85.45l-16.4,81.59H587.43l2.65-78.21S572,513.38,580,489.73Z" transform="translate(-74 -252)"/><path class="cls-2" d="M607.81,498.58s25.28,3.58,27.08,21.09a3.63,3.63,0,0,1-.21,1.6,3.44,3.44,0,0,1-.88,1.35,3.55,3.55,0,0,1-1.38.83,3.66,3.66,0,0,1-1.61.13c-4.3-.62-12.74-3.82-28.73-15.36Z" transform="translate(-74 -252)"/><path class="cls-2" d="M610.94,388.71s-4.1,7-2.41,19.07c0,0-24.24-2-23.51-16,0,0,11.81-2.9,14.58-13.64Z" transform="translate(-74 -252)"/><path d="M570.56,656l-3.09,23.12s7.92,3.24,10.29,2.51,6.53,2.25,6.53,2.25,17.69,5.59,21.16.56-4.41-6.56-10.8-10.35-9.09-18.41-9.09-18.41Z" transform="translate(-74 -252)"/><path class="cls-3" d="M603,494.43v85.46l-16.4,81.58H569.22l2.65-78.21s-18.08-63.24-10.12-86.9Z" transform="translate(-74 -252)"/><path class="cls-5" d="M602.26,494.43v85.46l-16.4,81.58H568.5l2.65-78.21S553.07,520,561,496.36Z" transform="translate(-74 -252)"/><path class="cls-3" d="M593.58,393.05s-15.19-9.9-25.32,19.55-6,83.76-6,83.76,43.16,14,58.6-5.55v-29.2s8.19-33.32-3.38-62.28C617.45,399.33,607.32,403.43,593.58,393.05Z" transform="translate(-74 -252)"/><path class="cls-3" d="M593.09,393.78s-15.19-9.9-25.31,19.55-6,83.76-6,83.76,43.16,14,58.59-5.55V462.33s8.2-33.31-3.37-62.28C617,400.05,606.84,404.16,593.09,393.78Z" transform="translate(-74 -252)"/><path class="cls-4" d="M593.09,393.05s-15.19-9.9-25.31,19.55-6,83.76-6,83.76,43.16,14,58.59-5.55v-29.2s8.2-33.32-3.37-62.28C617,399.33,606.84,403.43,593.09,393.05Z" transform="translate(-74 -252)"/><path class="cls-3" d="M577.66,407.78s18.81,5.79,15.19,28.48-2.17,38.62-2.17,38.62l24.12,24.38-8.69,11.83s-34.24-10.38-39.3-25.59S562.23,410.19,577.66,407.78Z" transform="translate(-74 -252)"/><path class="cls-3" d="M576.46,408.5s18.8,5.79,15.19,28.48-2.17,38.63-2.17,38.63L613.59,500l-8.68,11.82s-34.24-10.38-39.31-25.58S561,410.92,576.46,408.5Z" transform="translate(-74 -252)"/><path class="cls-4" d="M576.94,407.78s18.81,5.79,15.19,28.48S590,474.88,590,474.88l24.11,24.38-8.68,11.83s-34.24-10.38-39.3-25.59S561.51,410.19,576.94,407.78Z" transform="translate(-74 -252)"/><path class="cls-3" d="M599.24,378.93l11.34,10.62a10.94,10.94,0,0,0-.51,1,19.48,19.48,0,0,1-5,.66c-4.33,0-8.1-2.2-11.33-4.59A17.86,17.86,0,0,0,599.24,378.93Z" transform="translate(-74 -252)"/><path class="cls-6" d="M602.14,381.35a19.56,19.56,0,1,0-19.54-19.56A19.55,19.55,0,0,0,602.14,381.35Z" transform="translate(-74 -252)"/><path class="cls-2" d="M624.92,370.85a19.27,19.27,0,0,1-.81,5.56c-.06.21-.13.42-.2.62a19.54,19.54,0,1,1,1-6.18Z" transform="translate(-74 -252)"/><path class="cls-6" d="M586,361.79s-7.31,19.17,8.16,25a9.21,9.21,0,0,0,3.25-2.79,9.1,9.1,0,0,0,1.63-4,9.22,9.22,0,0,0-.35-4.27,9.11,9.11,0,0,0-2.25-3.65Z" transform="translate(-74 -252)"/><path class="cls-2" d="M600.21,380.62c1.06,0,1.93-1.51,1.93-3.38s-.87-3.38-1.93-3.38-1.93,1.52-1.93,3.38S599.14,380.62,600.21,380.62Z" transform="translate(-74 -252)"/><path class="cls-5" d="M593.58,393.05s13.14,20.64,20.61,20.64S609,394.34,609,394.34l-.3,5.35Z" transform="translate(-74 -252)"/><path class="cls-7" d="M183.28,310.54s-1.05,3.49,4.87,6.63,7.67,15,.7,18.48-9.06,8-5.57,11.16,9.75,11.51,1.39,13.6-9.41,6.28-7,8-5.57-3.14-5.57-3.14-1.4,8.37-8.71,6.28S135.55,329.72,146,324.14,183.28,310.54,183.28,310.54Z" transform="translate(-74 -252)"/><path class="cls-8" d="M156.28,606.21l2.27,21.16-9.82,6-9.06-1.51,4.53-25.69Z" transform="translate(-74 -252)"/><path class="cls-8" d="M185,331.1a21.71,21.71,0,0,1-.17,2.69,21.18,21.18,0,1,1,.17-2.69Z" transform="translate(-74 -252)"/><path class="cls-8" d="M171,341.3s1.88,32.12,4.15,32.12-26.43-1.51-26.43-1.51,12.08-21.16,6-28S171,341.3,171,341.3Z" transform="translate(-74 -252)"/><path class="cls-7" d="M139.67,511l9.82,37.79L141.94,613l17.36-1.51L166.1,511Z" transform="translate(-74 -252)"/><path class="cls-9" d="M139.67,511l9.82,37.79L141.94,613l17.36-1.51L166.1,511Z" transform="translate(-74 -252)"/><path class="cls-7" d="M154.77,623.59s.76-4.54,8.31,0,39.26,18.89,22.65,21.92-50.59-3.78-50.59-6-.75-16.63,2.27-15.12S150.24,635.68,154.77,623.59Z" transform="translate(-74 -252)"/><path class="cls-8" d="M145,618.3s-12.08,18.89-12.84,24.18S120,630.39,120,630.39l10.57-19.65Z" transform="translate(-74 -252)"/><path class="cls-7" d="M185,514l-13.59,45.35s-24.16,64.24-25.67,63.48-19.63-5.29-20.38-7.55S148,551.79,148,551.79l3-39.3Z" transform="translate(-74 -252)"/><path class="cls-7" d="M117.78,627.37a9.92,9.92,0,0,1,9.81,6c3,6.81,6.8,7.56,7.55,8.32s-2.26,16.63,0,18.14,4.53,17.38-3,17.38-19.63-8.31-18.87-9.83.75-12.09-1.51-16.62-6-12.09,0-16.63S117.78,627.37,117.78,627.37Z" transform="translate(-74 -252)"/><path class="cls-4" d="M189.5,443.71l1.51,13.6s11.33,11.34,15.1,24.95,34.73,36.27,25.67,39.3-19.63,4.53-46.05,0-67.95,5.29-67.95-19.66c0,0-5.29-6.8-9.06,3a199.48,199.48,0,0,1-9.06,19.65s-9.06-15.87-6-22.68,0-6,3.77-13.6,22.65-35.52,30.2-37,21.9-21.16,21.14-23.43S189.5,443.71,189.5,443.71Z" transform="translate(-74 -252)"/><path class="cls-10" d="M148.73,359.06s31,6.8,32.47,11.34c.85,2.55,4.8,7.25,8.1,10.88A42.5,42.5,0,0,1,200,402.92c.78,4.82-2.53,9.16-4,14.71-4.53,16.63-7.93,12.48-3.4,24.57s-22.65,16.63-33.22,11.34S137,416.88,137,413.1s-10.19-46.48-1.89-49.5S148.73,359.06,148.73,359.06Z" transform="translate(-74 -252)"/><path class="cls-8" d="M191.77,395.34l9.06,40.05,29.82,13.23s22.65-5.29,23.41,3c.49,5.43-25.67,7.56-25.67,7.56L185,442.2l-9.81-37Z" transform="translate(-74 -252)"/><path class="cls-10" d="M181.2,380.22s18.87,11.34,14.34,17.39-15.85,15.87-18.87,15.87-5.29-18.14-5.29-23.43S181.2,380.22,181.2,380.22Z" transform="translate(-74 -252)"/><path class="cls-7" d="M164.78,299.64c0-5.66-16.92-1.59-24.17,6.31-5,5.47-12.65,13.7-6.26,19.51s-11,13.41-15.61,15.72-13.84,9.36-5.55,14.09,8.16,9.51,5,10.64,6.88-1.68,6.88-1.68-1,9.34,7.42,9.3,32.61-46.42,26.84-59.31C154,302.24,164.78,299.64,164.78,299.64Z" transform="translate(-74 -252)"/><path class="cls-7" d="M161.11,298.4C183.73,297,186,314.08,186,314.08c-.15,9.87-15.8,5.06-20.15,6.53-5.24-3.78-15.35-10.92-22.58-16A34.11,34.11,0,0,1,161.11,298.4Z" transform="translate(-74 -252)"/><path class="cls-7" d="M964.27,267.44s1.56,1.78-1.11,5.23-.51,10.94,4.55,11.13,7.52,2.31,6.3,5.11-2.69,9.44,2.82,8.43,7.26,1.18,6.28,2.87,2.46-3.36,2.46-3.36,3.07,4.58,6.84,1.38S997.68,266,990,265.46,964.27,267.44,964.27,267.44Z" transform="translate(-74 -252)"/><path class="cls-8" d="M1003.23,405.65l1.75,12.28h7.88l-2.62-14Z" transform="translate(-74 -252)"/><path class="cls-11" d="M1013.74,410.48s10.51,9.64,7.88,10.51-12.26,11.4-14,12.28c-1.57.78-18.39,6.13-15.76,0s8.76-9.65,8.76-9.65l1.75-10.51Z" transform="translate(-74 -252)"/><path class="cls-3" d="M1013.74,410.48s10.51,9.64,7.88,10.51-12.26,11.4-14,12.28c-1.57.78-18.39,6.13-15.76,0s8.76-9.65,8.76-9.65l1.75-10.51Z" transform="translate(-74 -252)"/><path class="cls-8" d="M1013.74,396.45l1.75,12.27h7.88l-2.62-14Z" transform="translate(-74 -252)"/><path class="cls-12" d="M980.81,363.88l11.48-38S973,308.36,986.16,303.1s16.64,21,16.64,21l-4.38,45.58H980.9Z" transform="translate(-74 -252)"/><path class="cls-4" d="M1007.61,336S985,365,988.41,369.34,998,400,998,400s-.88,10.52,2.63,10.52,12.26-1.76,12.26-4.39-7.89-35.94-7.89-35.94l22.77-29.8Z" transform="translate(-74 -252)"/><path class="cls-4" d="M1009.36,337.72l22.77-12.27s15.76,7.89,11.38,14.9S1019,365.77,1019,365.77s6.13,29.81,5.26,30.68-10.51,4.38-13.14,3.51S994.48,364.9,998,363.14,1012.87,343,1012.87,343Z" transform="translate(-74 -252)"/><path class="cls-7" d="M947.19,659.41s15.76,9.65,17.52,9.65,25.39,6.13,14.88,10.52-50.79-1.76-49.91-4.39,0-18.41,1.75-18.41S947.19,659.41,947.19,659.41Z" transform="translate(-74 -252)"/><path class="cls-7" d="M964.71,671.69s15.76,9.64,17.51,9.64,25.39,6.13,14.88,10.52-50.78-1.76-49.91-4.39,0-18.4,1.75-18.4S964.71,671.69,964.71,671.69Z" transform="translate(-74 -252)"/><path class="cls-10" d="M948.07,485.86s2.63,13.15,7,22.79-.87,55.22-3.5,62.23-28,90.29-20.14,91.16,23.64,0,23.64,0l25.4-79.76-4.38-106.94Z" transform="translate(-74 -252)"/><path class="cls-3" d="M948.07,485.86s2.63,13.15,7,22.79-.87,55.22-3.5,62.23-28,90.29-20.14,91.16,23.64,0,23.64,0l25.4-79.76-4.38-106.94Z" transform="translate(-74 -252)"/><path class="cls-10" d="M953.32,486.73s3.51,23.67,11.39,28.93S970,526.18,970,526.18l-3.5,46.46s-34.15,84.14-23.64,94.66,20.13,6.14,24.51,5.26,12.26-19.28,7.88-24.54S984,611.2,987.47,606s0-12.28,4.38-14,14-13.15,14-21,12.26-92,4.38-97.29-58.4,10.85-58.4,10.85Z" transform="translate(-74 -252)"/><path class="cls-12" d="M956,344.73a20,20,0,1,1,0-.61C956,344.32,956,344.52,956,344.73Z" transform="translate(-74 -252)"/><path class="cls-8" d="M996.23,274.61a15.77,15.77,0,0,1-15.76,15.78,13.94,13.94,0,0,1-1.45-.07,12.42,12.42,0,0,1-1.49-.21,15.72,15.72,0,0,1-9.44-5.72l0,0a15.77,15.77,0,1,1,28.16-9.75Z" transform="translate(-74 -252)"/><path class="cls-12" d="M949.82,344.73S960.33,364,965.58,364s-21,20.16-21,20.16-8.76-25.42-10.51-26.3S949.82,344.73,949.82,344.73Z" transform="translate(-74 -252)"/><path class="cls-13" d="M953.32,362.27s-22.76,7.88-21.89,10.52-6.13,8.76-6.13,11.39-1.75,26.3,8.76,45.58,27.14,33.31,19.26,42.07-20.14,23.67-7,23.67,34.15-19.28,53.41-12.27S1014.62,464,1014.62,464s2.62-20.16-2.63-26.3-23.64-50-23.64-55.22S970.84,357,966.46,357,953.32,362.27,953.32,362.27Z" transform="translate(-74 -252)"/><path class="cls-8" d="M984.84,284.25s7.13,13.58,7.51,16,12.63-16,12.63-16l-14-9.64Z" transform="translate(-74 -252)"/><path class="cls-11" d="M987.47,294.77,1002.36,279l17.51,7.89s16.33,35.94,17.36,38.57-26.12,14.9-28.74,14.9-21-27.17-21-27.17S983.09,300,987.47,294.77Z" transform="translate(-74 -252)"/><path class="cls-8" d="M980.47,315.81v15.78H991l-3.45-15.78Z" transform="translate(-74 -252)"/><path class="cls-8" d="M986.46,327.64a6.51,6.51,0,0,0-3.73,1.11,6.67,6.67,0,0,0-2.44,3c-.68,1.86-.45,3.8,2.8,4.62,7,1.75,7.88,0,7.88,0s12.16-1.76,9.59-5.26-9.59-3.51-9.59-3.51Z" transform="translate(-74 -252)"/><path class="cls-11" d="M1024.25,403.46s10.51,9.65,7.88,10.52-12.26,11.4-14,12.27c-1.57.79-18.39,6.14-15.76,0s8.75-9.64,8.75-9.64l1.76-10.52Z" transform="translate(-74 -252)"/><path class="cls-11" d="M987.47,293.9s-9.63,3.5-9.63,7.89-4.38,18.4,0,18.4S991,316.83,991,316.83Z" transform="translate(-74 -252)"/><path class="cls-12" d="M984.84,357s25.4-8.77,26.27-8.77,13.14-7,12.26-9.64l-3.5-21.91s-14-28.93-4.38-28.93,14.89,22.79,14.89,22.79,21,39.44,9.63,48.21-58.67,24.54-61.29,21.91S984.84,357,984.84,357Z" transform="translate(-74 -252)"/><path class="cls-8" d="M1009.36,300l5.91,5.7-7.66,7.45s-10.51-4.38-9.63-1.75,6.13,10.52,9.63,10.52,21.73-11.4,21.81-14.91-11.3-15.77-13.93-16.65S1009.36,300,1009.36,300Z" transform="translate(-74 -252)"/><path class="cls-11" d="M998.25,293.92s12.86,11.37,14.62,11.37,4.93-17.08,4.93-17.08-10.38-6.77-14.22-4.93S998.25,293.92,998.25,293.92Z" transform="translate(-74 -252)"/><path class="cls-13" d="M953.32,367.52s0-12.27,26.27-12.27H991l-5.25,28.93-17.51,5.26Z" transform="translate(-74 -252)"/><path class="cls-4" d="M976.83,264.27l-2.49-.83-2.49,7.49,2.49.83Z" transform="translate(-74 -252)"/><path class="cls-14" d="M630.35,573a1807.63,1807.63,0,0,1-214.91-13.26c-198-23.76-304.94-69.83-310.79-71.81L87,469.51h0c1.66.56,142.23,47.48,335.39,70.57C599.65,561.26,859,566.12,1088,469l-5,22.18c-105.36,44.69-202.46,67.05-334,77.3Q690,573,630.35,573Z" transform="translate(-74 -252)"/><path class="cls-6" d="M107.3,459.25H92.73V665.49H107.3Z" transform="translate(-74 -252)"/><path class="cls-6" d="M88,658.72h24.07a14,14,0,0,1,14,14v12H74v-12a14,14,0,0,1,14-14Z" transform="translate(-74 -252)"/><path class="cls-3" d="M100,483.21a14.59,14.59,0,1,0-14.56-14.59A14.58,14.58,0,0,0,100,483.21Z" transform="translate(-74 -252)"/><path class="cls-6" d="M100,482.17a14.59,14.59,0,1,0-14.56-14.59A14.58,14.58,0,0,0,100,482.17Z" transform="translate(-74 -252)"/><path class="cls-6" d="M1090.3,467.25h-14.57V673.49h14.57Z" transform="translate(-74 -252)"/><path class="cls-6" d="M1071,666.72h24.07a14,14,0,0,1,14,14v12h-52v-12a14,14,0,0,1,14-14Z" transform="translate(-74 -252)"/><path class="cls-3" d="M1083,491.21a14.59,14.59,0,1,0-14.56-14.59A14.58,14.58,0,0,0,1083,491.21Z" transform="translate(-74 -252)"/><path class="cls-6" d="M1083,490.17a14.59,14.59,0,1,0-14.56-14.59A14.58,14.58,0,0,0,1083,490.17Z" transform="translate(-74 -252)"/><line class="cls-15" x1="534.52" y1="134.13" x2="525.13" y2="129.11"/><line class="cls-16" x1="536.5" y1="122.93" x2="528.86" y2="123.01"/><line class="cls-15" x1="537.79" y1="123.44" x2="528.4" y2="122.99"/><path class="cls-6" d="M621.2,357.5s6.74,1.64-5.08,5.74a14.94,14.94,0,0,0-8.85,8,9.27,9.27,0,0,1-5.46,4.86,9.22,9.22,0,0,1-7.27-.66l-3.74-2.06-6.51-15.21,7.72-8.93,13.26-1.69Z" transform="translate(-74 -252)"/><path class="cls-17" d="M623.91,377a19.55,19.55,0,0,1-10.52,11.65l-4.74-1.27a1.43,1.43,0,0,1-1-1.76l2.87-10.72a1.45,1.45,0,0,1,1.76-1Z" transform="translate(-74 -252)"/><path class="cls-18" d="M184.8,333.79a21.09,21.09,0,0,1-7.12,13.29l-4.85-.42a2.06,2.06,0,0,1-1.87-2.23l.85-9.72a2,2,0,0,1,2.22-1.86Z" transform="translate(-74 -252)"/><line class="cls-19" x1="97.77" y1="92.05" x2="85.37" y2="89.22"/><line class="cls-19" x1="99.3" y1="83.23" x2="87.67" y2="82.67"/><path class="cls-7" d="M162.31,303.61s-1.16,3.87,5.4,7.35,8.5,16.61.78,20.47-10,8.89-6.18,12.37,10.81,12.75,1.54,15.06-10.42,7-7.71,8.89-6.18-3.48-6.18-3.48-1.54,9.27-9.65,7-16.19-44.46-7.15-55.31C141.56,305.83,162.31,303.61,162.31,303.61Z" transform="translate(-74 -252)"/><line class="cls-20" x1="912.77" y1="26.54" x2="905.62" y2="35.09"/><line class="cls-20" x1="905.98" y1="21.19" x2="900.06" y2="29.27"/><path class="cls-21" d="M980.07,289.31l-1.05,1a12.42,12.42,0,0,1-1.49-.21,15.72,15.72,0,0,1-9.44-5.72l3.45-3.33a2.57,2.57,0,0,1,3.57,0l5,4.8A2.38,2.38,0,0,1,980.07,289.31Z" transform="translate(-74 -252)"/><path class="cls-7" d="M1010.7,268.22a68.45,68.45,0,0,1-7.7-.48c-2-4.86-4.56-8.93-7.33-10.45-2-1.76-5-3-7.37-4.05-5.83-2.48-15.54-.93-16.11,1.89-11.48,5.49-8.58,15.14-8.58,15.14,1.78,3.77,5.79,2.1,9.18.39.87,2.73,2.92,5.06,5.85,5.17,5.6.21,8.32,2.56,7,5.66s-3,10.45,3.13,9.33,8,1.32,7,3.19,2.73-3.72,2.73-3.72,3.4,5.07,7.58,1.52a3.22,3.22,0,0,0,.87-1.49c1.94.83,3.48,1.15,4.35.76,5-2.24,1.89-7.5,1.89-7.5s6.68-1,4.53-.86-3.51-2.62.13-7.65S1014.08,268.33,1010.7,268.22Z" transform="translate(-74 -252)"/><path class="cls-22" d="M955.93,344.12,952,346.86a2.11,2.11,0,0,1-2.94-.51L941.83,336a2.12,2.12,0,0,1,.52-2.94l5.63-3.94A19.19,19.19,0,0,1,955.93,344.12Z" transform="translate(-74 -252)"/><line class="cls-23" x1="875.82" y1="92.73" x2="863.09" y2="98.15"/><line class="cls-23" x1="869.85" y1="83.24" x2="861.42" y2="89.45"/><path class="cls-7" d="M929.14,328.73c1.21-.71,2.63-1.59,2.67-3a2.67,2.67,0,0,0-1.73-2.33,7.8,7.8,0,0,0-3-.4,4.19,4.19,0,0,0-1.17.11c-1,.31-1.57,1.32-2.36,2a10,10,0,0,1-4.18,1.68,27,27,0,0,0-7,2.9,3.37,3.37,0,0,0-1.11.91,4.58,4.58,0,0,0-.45,2.27c-.19,3-2,5.57-3.3,8.23s-2.21,6-.65,8.53q.93,1.18,1.74,2.46c1.1,2.31-.28,5.15.52,7.58a6.61,6.61,0,0,0,1.68,2.52,13.21,13.21,0,0,0,5.51,3.34c2,.61,4.46,1,5.24,3a16.75,16.75,0,0,0,.74,2.56,4,4,0,0,0,2.88,1.44,12.24,12.24,0,0,0,3.72.28,4.71,4.71,0,0,0,1.79-.54,4.55,4.55,0,0,0,1.43-1.19,9.27,9.27,0,0,1,1.3-1.92c1.27-1.06,3.19-.22,4.82-.5a3.56,3.56,0,0,0,2.77-2.6,4.75,4.75,0,0,1,.56-2c1-1.3,3.67-.39,4.34-1.89.43-1-.48-2-1.35-2.61a36.81,36.81,0,0,1-4.32-2.93,5,5,0,0,1-1.83-4.63c.6-2.54,3.92-3.94,4-6.55a4.68,4.68,0,0,0-2.22-3.7,33.8,33.8,0,0,1-3.66-2.57c-.79-.76-1.38-1.72-2.23-2.4-1.55-1.24-3.66-1.38-5.62-1.59-1.06-.1-5.26-.59-5.1-2.2C923.71,331.67,928.07,329.36,929.14,328.73Z" transform="translate(-74 -252)"/></svg>